<?xml version="1.0" encoding="iso-8859-1"?>
<!-- Generator: Adobe Illustrator 19.0.0, SVG Export Plug-In . SVG Version: 6.00 Build 0)  -->
<svg version="1.1" id="Capa_1" xmlns="http://www.w3.org/2000/svg" xmlns:xlink="http://www.w3.org/1999/xlink" x="0px" y="0px"
	 viewBox="0 0 383.506 383.506" style="enable-background:new 0 0 383.506 383.506;" xml:space="preserve">
<g>
	<path d="M9.927,112.806v169.005c0,9.616,7.867,17.483,17.483,17.483h104.608l90.622,79.84c3.205,2.914,7.285,4.371,11.656,4.371
		c2.331,0,4.954-0.583,7.285-1.457c6.411-2.914,10.199-9.033,10.199-16.026v-348.5c0-7.285-4.371-13.695-11.073-16.318
		c-6.702-2.622-14.278-0.874-19.232,4.371l-82.171,89.747H27.41C17.794,95.323,9.927,103.191,9.927,112.806z M44.893,130.29h101.986
		c4.954,0,9.616-2.04,12.821-5.536l57.112-62.357v265.163l-66.436-58.569c-3.205-2.914-7.285-4.371-11.656-4.371H44.893V130.29z
		 M312.97,256.752c16.609-18.066,25.642-41.086,25.642-65.562c0-24.185-9.033-47.205-25.059-64.98
		c-6.411-7.285-5.828-18.066,1.166-24.768c7.285-6.411,18.066-5.828,24.768,1.166c22.145,24.185,34.092,55.655,34.092,88.582
		c0,33.218-12.238,64.98-34.967,89.165c-3.497,3.788-8.159,5.536-12.821,5.536c-4.371,0-8.45-1.457-11.947-4.662
		C306.851,274.818,306.268,263.745,312.97,256.752z"/>
</g>
<g>
</g>
<g>
</g>
<g>
</g>
<g>
</g>
<g>
</g>
<g>
</g>
<g>
</g>
<g>
</g>
<g>
</g>
<g>
</g>
<g>
</g>
<g>
</g>
<g>
</g>
<g>
</g>
<g>
</g>
</svg>
