<?xml version="1.0" ?><svg viewBox="0 0 512 512" xmlns="http://www.w3.org/2000/svg"><g id="Family_Package"><path d="M381.3862,274.5009l-21.8515-18.6294a72.53,72.53,0,0,0-36.4364-132.11,80.55,80.55,0,0,0-134.197,0,72.53,72.53,0,0,0-36.436,132.11l-21.852,18.6294a114.4894,114.4894,0,0,0-40.2691,87.2485v54.313a8,8,0,0,0,8,8H413.6558a8,8,0,0,0,8-8v-54.313A114.4882,114.4882,0,0,0,381.3862,274.5009ZM256,103.7773a64.6294,64.6294,0,0,1,27.3853,123.1689,8,8,0,0,0-1.795,13.3316l34.2784,29.2236a111.8305,111.8305,0,0,1,39.3349,85.2246v53.1065H156.7964V354.726a111.8305,111.8305,0,0,1,39.3349-85.2246l34.2779-29.2236a8,8,0,0,0-1.7945-13.3316A64.6293,64.6293,0,0,1,256,103.7773Z"/><circle cx="233.469" cy="160.7032" r="9.5721"/><circle cx="277.043" cy="160.7032" r="9.5721" transform="translate(-32.4903 242.9679) rotate(-45)"/><path d="M234.9668,186.1254a8.0008,8.0008,0,0,0,.9165,11.2769,30.97,30.97,0,0,0,38.7451,0,8,8,0,0,0-10.36-12.1934c-4.8008,4.0791-13.2237,4.0791-18.0244,0A8.0008,8.0008,0,0,0,234.9668,186.1254Z"/></g></svg>