<?xml version="1.0" encoding="iso-8859-1"?>
<!-- Generator: Adobe Illustrator 19.1.0, SVG Export Plug-In . SVG Version: 6.00 Build 0)  -->
<svg version="1.1" id="Capa_1" xmlns="http://www.w3.org/2000/svg" xmlns:xlink="http://www.w3.org/1999/xlink" x="0px" y="0px"
	 viewBox="0 0 346.072 346.072" style="enable-background:new 0 0 346.072 346.072;" xml:space="preserve">
<g>
	<g>
	</g>
	<g>
	</g>
	<g>
	</g>
	<g>
	</g>
	<g>
	</g>
	<g>
	</g>
	<g>
	</g>
	<g>
	</g>
	<g>
	</g>
	<g>
	</g>
	<g>
	</g>
	<g>
	</g>
	<g>
	</g>
	<g>
	</g>
	<g>
	</g>
</g>
<path style="fill:#231F20;" d="M333.576,97.32c-31.342-17.747-65.873-31.024-102.508-37.024h31.185c5.059,0,9.158-3.946,9.158-9
	c0-5.059-4.099-9-9.158-9h-55.797c-0.572,0-1.175-0.254-1.786-0.247c4.59-3.588,7.552-9.284,7.552-15.562
	c0-10.828-8.778-19.666-19.605-19.666c-8.383,0-15.517,5.241-18.32,12.642c-2.803-7.401-9.937-12.688-18.32-12.688
	c-10.828,0-19.605,8.77-19.605,19.598c0,6.278,2.962,12.091,7.552,15.68c-0.613-0.007-1.218,0.243-1.791,0.243H86.339
	c-5.059,0-9.158,3.941-9.158,9c0,5.054,4.099,9,9.158,9h28.642c-36.622,6-71.139,19.277-102.473,37.019
	c-22.352,11.637-9.703,30.928-0.717,25.788c0.786-0.472,1.297-0.977,2.297-1.444V254.71c0,33.06,24.342,60.549,56.003,65.609
	c1.087,0.5,2.322,0.792,3.587,0.828c-2.795,1.732-4.655,4.826-4.655,8.339c0,5.393,4.427,9.811,9.821,9.811h186.969
	c5.393,0,9.803-4.418,9.803-9.811c0-3.618-1.775-6.791-4.71-8.489c34.559-2.313,62.183-31.152,62.183-66.292V122.904
	c0,0.054-0.032,0.149,0.058,0.204C341.955,128.625,356.975,109.975,333.576,97.32z M146.088,303.296V79.217
	c9-0.878,18.406-1.321,27.645-1.32c9.815,0,19.355,0.509,29.355,1.498v223.901H146.088z M127.088,81.667v221.629h-44V92.338
	C97.088,87.653,112.088,84.086,127.088,81.667z M222.088,81.956c17,2.933,34,7.43,51,13.449V302.4c-3,0.28-4.706,0.896-6.879,0.896
	h-44.121V81.956z M165.092,43.715c4.211-2.217,7.502-5.923,9.204-10.417c1.702,4.494,4.993,8.199,9.204,10.417
	c0.694,5.321,2.221,8.87,4.743,11.585c-5.04-0.233-10.107-0.358-15.204-0.358c-4.218-0.001-8.416,0.089-12.595,0.248
	C162.908,52.489,164.407,48.966,165.092,43.715z M32.088,254.705V114.481c11-5.823,22-10.971,33-15.437v201.097
	C46.088,293.568,32.088,275.689,32.088,254.705z M314.088,254.705c0,17.582-9,32.986-23,41.386V102.722c8,3.554,16,7.472,23,11.759
	V254.705z"/>
<g>
</g>
<g>
</g>
<g>
</g>
<g>
</g>
<g>
</g>
<g>
</g>
<g>
</g>
<g>
</g>
<g>
</g>
<g>
</g>
<g>
</g>
<g>
</g>
<g>
</g>
<g>
</g>
<g>
</g>
</svg>
