<svg xmlns="http://www.w3.org/2000/svg"  viewBox="0 0 100 100" width="100px" height="100px" baseProfile="basic"><path d="M42,94.5c-3.584,0-6.5-2.916-6.5-6.5v-1.5H32c-3.584,0-6.5-2.916-6.5-6.5v-1.5H24	c-3.584,0-6.5-2.916-6.5-6.5v-1.5H16c-3.584,0-6.5-2.916-6.5-6.5V24c0-2.835,1.825-5.252,4.361-6.139c0.652-1.867,2.133-3.348,4-4	C18.748,11.324,21.165,9.5,24,9.5h8c2.699,0,1.019,3.153,2,5.5h3c2.699,0,8.019,0.153,9,2.5c2.699,0,2.019,3.153,3,5.5	c0.981-2.347,6.302-5.5,9-5.5c0.981-2.347,3.301-4,6-4h2c0.981-2.347,3.301-4,6-4h8c2.835,0,3.113,3.963,4,6.5	c1.867,0.652,5.486-0.006,6.139,1.861C92.676,18.748,94.5,21.165,94.5,24v40c0,3.584-2.916,6.5-6.5,6.5h-1.5V72	c0,3.584-2.916,6.5-6.5,6.5h-1.5V80c0,3.584-2.916,6.5-6.5,6.5h-3.5V88c0,3.584-2.916,6.5-6.5,6.5H42z" opacity=".35"/><path fill="#f2f2f2" d="M40,92.5c-3.584,0-6.5-2.916-6.5-6.5v-1.5H30c-3.584,0-6.5-2.916-6.5-6.5v-1.5H22	c-3.584,0-6.5-2.916-6.5-6.5v-1.5H14c-3.584,0-6.5-2.916-6.5-6.5V22c0-2.835,1.825-5.252,4.361-6.139c0.652-1.867,2.133-3.348,4-4	C16.748,9.324,19.165,7.5,22,7.5h8c2.699,0,5.019,1.653,6,4h2c2.699,0,5.019,1.653,6,4c2.699,0,5.019,1.653,6,4	c0.981-2.347,3.302-4,6-4c0.981-2.347,3.301-4,6-4h2c0.981-2.347,3.301-4,6-4h8c2.835,0,5.252,1.824,6.139,4.361	c1.867,0.652,3.348,2.133,4,4C90.676,16.748,92.5,19.165,92.5,22v40c0,3.584-2.916,6.5-6.5,6.5h-1.5V70c0,3.584-2.916,6.5-6.5,6.5	h-1.5V78c0,3.584-2.916,6.5-6.5,6.5h-3.5V86c0,3.584-2.916,6.5-6.5,6.5H40z"/><polygon fill="#de5147" points="82,22 82,18 78,18 78,14 70,14 70,18 62,18 62,22 56,22 56,32 44,32 44,22 38,22 38,18 30,18 30,14 22,14 22,18 18,18 18,22 14,22 14,62 22,62 22,70 30,70 30,78 40,78 40,86 50,86 60,86 60,78 70,78 70,70 78,70 78,62 86,62 86,22"/><path fill="#40396e" d="M60,87.5H40c-0.829,0-1.5-0.672-1.5-1.5v-6.5H30c-0.829,0-1.5-0.672-1.5-1.5v-6.5H22	c-0.829,0-1.5-0.672-1.5-1.5v-6.5H14c-0.829,0-1.5-0.672-1.5-1.5V22c0-0.828,0.671-1.5,1.5-1.5h2.5V18c0-0.828,0.671-1.5,1.5-1.5	h2.5V14c0-0.828,0.671-1.5,1.5-1.5h8c0.829,0,1.5,0.672,1.5,1.5v2.5H38c0.829,0,1.5,0.672,1.5,1.5v2.5H44c0.829,0,1.5,0.672,1.5,1.5	v8.5h9V22c0-0.828,0.671-1.5,1.5-1.5h4.5V18c0-0.828,0.671-1.5,1.5-1.5h6.5V14c0-0.828,0.671-1.5,1.5-1.5h8	c0.829,0,1.5,0.672,1.5,1.5v2.5H82c0.829,0,1.5,0.672,1.5,1.5v2.5H86c0.829,0,1.5,0.672,1.5,1.5v40c0,0.828-0.671,1.5-1.5,1.5h-6.5	V70c0,0.828-0.671,1.5-1.5,1.5h-6.5V78c0,0.828-0.671,1.5-1.5,1.5h-8.5V86C61.5,86.828,60.829,87.5,60,87.5z M41.5,84.5h17V78	c0-0.828,0.671-1.5,1.5-1.5h8.5V70c0-0.828,0.671-1.5,1.5-1.5h6.5V62c0-0.828,0.671-1.5,1.5-1.5h6.5v-37H82	c-0.829,0-1.5-0.672-1.5-1.5v-2.5H78c-0.829,0-1.5-0.672-1.5-1.5v-2.5h-5V18c0,0.828-0.671,1.5-1.5,1.5h-6.5V22	c0,0.828-0.671,1.5-1.5,1.5h-4.5V32c0,0.828-0.671,1.5-1.5,1.5H44c-0.829,0-1.5-0.672-1.5-1.5v-8.5H38c-0.829,0-1.5-0.672-1.5-1.5	v-2.5H30c-0.829,0-1.5-0.672-1.5-1.5v-2.5h-5V18c0,0.828-0.671,1.5-1.5,1.5h-2.5V22c0,0.828-0.671,1.5-1.5,1.5h-2.5v37H22	c0.829,0,1.5,0.672,1.5,1.5v6.5H30c0.829,0,1.5,0.672,1.5,1.5v6.5H40c0.829,0,1.5,0.672,1.5,1.5V84.5z"/></svg>