<svg xmlns="http://www.w3.org/2000/svg" data-logo="logo" viewBox="0 0 252 42"><g fill="#1F2933"><path d="M68.75 1h27.5L72.5 41H45L68.75 1ZM43.75 1h20L40 41H20L43.75 1ZM23.75 1h15L15 41H0L23.75 1Z"/></g><path fill="#1F2933" d="m121.83 8.62-.49 4.25-6.77 20.63h-5.45l9.25-24.88h3.46Zm10.6 24.88h-5.47l-6.78-20.63-.55-4.25h3.5l9.3 24.88Zm-18.92-9.26h13.14v4.01h-13.14v-4.01Zm24.85-9.23.29 4.03V33.5h-4.92V15.01h4.63Zm5.86-.12-.08 4.56q-.36-.05-.87-.09-.5-.04-.91-.04-1.04 0-1.8.26-.76.27-1.27.77-.5.5-.75 1.25-.25.74-.28 1.68l-.99-.31q0-1.79.36-3.3.36-1.52 1.05-2.64.69-1.13 1.7-1.75 1.01-.61 2.3-.61.41 0 .84.06t.7.16Zm-.08.12h10.76v3.49h-10.76v-3.49Zm2.66 13.41V10.45h4.93v17.48q0 .8.21 1.23.21.43.64.59.43.16 1.08.16.46 0 .83-.04.36-.04.62-.1l.02 3.63q-.64.2-1.37.32-.74.12-1.62.12-1.63 0-2.83-.54-1.21-.53-1.86-1.73-.65-1.2-.65-3.15Zm18.62 5.08.85-5.2 5.86-19.68h5.71l-8.66 24.88h-3.76ZM155.2 8.62h5.67l5.84 19.68.89 5.2h-3.79L155.2 8.62Zm32.47 25.22q-2.16 0-3.87-.69-1.7-.69-2.89-1.92-1.19-1.23-1.82-2.87-.63-1.63-.63-3.47v-.69q0-2.1.59-3.84.6-1.75 1.72-3.03 1.12-1.28 2.73-1.97 1.6-.69 3.62-.69 1.97 0 3.49.65 1.52.65 2.55 1.84 1.04 1.2 1.57 2.86.53 1.67.53 3.7v2.06h-14.7v-3.29h9.86v-.37q0-1.03-.37-1.84t-1.1-1.29q-.74-.48-1.88-.48-.97 0-1.68.43-.7.43-1.13 1.2-.44.76-.65 1.8-.22 1.03-.22 2.26v.69q0 1.11.32 2.05.32.94.91 1.62.59.68 1.43 1.06.85.38 1.92.38 1.34 0 2.49-.52 1.16-.53 1.99-1.59l2.4 2.6q-.59.84-1.59 1.61-1 .77-2.4 1.25-1.4.49-3.19.49Zm14.2-18.83.31 3.95V33.5h-4.92V15.01h4.61Zm-.41 8.59h-1.33q0-2.05.53-3.69.53-1.65 1.48-2.82.96-1.18 2.28-1.8 1.33-.62 2.97-.62 1.3 0 2.38.37 1.07.38 1.85 1.2t1.2 2.17q.41 1.35.41 3.3V33.5h-4.95V21.69q0-1.23-.34-1.91-.35-.69-1-.97-.66-.28-1.62-.28-.99 0-1.72.39-.72.4-1.19 1.09-.47.69-.71 1.61-.24.93-.24 1.98Zm26.05 9.9-.3-4.43V15.01h4.93V33.5h-4.63Zm.25-8.22 1.45-.03q0 1.84-.42 3.42-.43 1.58-1.28 2.74-.86 1.15-2.16 1.79-1.3.64-3.06.64-1.35 0-2.48-.38-1.14-.39-1.95-1.22-.81-.82-1.27-2.13-.45-1.31-.45-3.16V15.01h4.92v11.98q0 .82.2 1.38.2.57.55.93.36.35.85.51.49.15 1.09.15 1.52 0 2.4-.61.88-.62 1.24-1.69.37-1.06.37-2.38Zm15.93 8.56q-2.15 0-3.86-.69t-2.9-1.92q-1.19-1.23-1.82-2.87-.63-1.63-.63-3.47v-.69q0-2.1.6-3.84.59-1.75 1.71-3.03 1.12-1.28 2.73-1.97 1.61-.69 3.62-.69 1.97 0 3.49.65 1.52.65 2.55 1.84 1.04 1.2 1.57 2.86.53 1.67.53 3.7v2.06h-14.7v-3.29h9.86v-.37q0-1.03-.37-1.84-.36-.81-1.1-1.29-.73-.48-1.88-.48-.97 0-1.67.43t-1.14 1.2q-.44.76-.65 1.8-.21 1.03-.21 2.26v.69q0 1.11.31 2.05.32.94.91 1.62.59.68 1.43 1.06.85.38 1.93.38 1.33 0 2.48-.52 1.16-.53 1.99-1.59l2.4 2.6q-.58.84-1.58 1.61-1 .77-2.4 1.25-1.41.49-3.2.49Z"/></svg>