<svg viewBox="0 0 247 42" xmlns="http://www.w3.org/2000/svg" data-logo="logo">
            <g transform="translate(0, 1) rotate(0)" id="logogram" style="opacity: 1;"><path fill="#1F2933" d="M40 13.4683C40.0001 10.7823 39.1891 8.1589 37.673 5.9417C36.1569 3.72451 34.0065 2.01688 31.5035 1.04252C29.0005 0.0681476 26.2615 -0.127534 23.6455 0.48109C21.0293 1.08971 18.658 2.47428 16.8421 4.45341H0V40H35.5601V23.3873C36.9557 22.139 38.0726 20.6104 38.8377 18.9012C39.6027 17.192 39.9988 15.3409 40 13.4683ZM33.1579 13.4683C33.1606 14.7553 32.7814 16.0143 32.0683 17.0858C31.3551 18.1572 30.3402 18.9931 29.1518 19.4874C27.9634 19.9819 26.6552 20.1127 25.3924 19.8631C24.1298 19.6137 22.9695 18.9953 22.0584 18.0861C21.1474 17.1769 20.5266 16.0179 20.2745 14.7557C20.0224 13.4936 20.1505 12.185 20.6424 10.9957C21.1343 9.80626 21.968 8.78957 23.0379 8.07423C24.108 7.35888 25.3661 6.97705 26.6532 6.97703C28.376 6.97703 30.0285 7.6605 31.2479 8.87745C32.4675 10.0944 33.1544 11.7455 33.1579 13.4683ZM28.7179 33.1579H6.84211V11.2955H13.5088C13.38 12.0128 13.3123 12.7397 13.3063 13.4683C13.31 17.007 14.7173 20.3997 17.2196 22.902C19.7217 25.4042 23.1144 26.8116 26.6532 26.8151C27.3451 26.8115 28.0355 26.7528 28.7179 26.6397V33.1579Z"></path></g>
            <g transform="translate(46, 7.5)" id="logotype" style="opacity: 1;"><path d="M17.64 27.38L17.64 27.38Q14.58 27.38 12.31 26.44Q10.05 25.50 8.79 23.65Q7.52 21.80 7.45 19.10L7.45 19.10L12.53 19.10Q12.63 20.39 13.30 21.25Q13.96 22.11 15.07 22.54Q16.19 22.97 17.59 22.97L17.59 22.97Q18.99 22.97 20.02 22.57Q21.06 22.16 21.64 21.43Q22.22 20.69 22.22 19.72L22.22 19.72Q22.22 18.85 21.70 18.26Q21.18 17.67 20.20 17.24Q19.23 16.81 17.83 16.49L17.83 16.49L15.02 15.79Q11.79 15.00 9.96 13.32Q8.14 11.64 8.14 8.87L8.14 8.87Q8.14 6.56 9.38 4.83Q10.61 3.11 12.78 2.15Q14.94 1.19 17.71 1.19L17.71 1.19Q20.53 1.19 22.63 2.16Q24.73 3.13 25.91 4.84Q27.09 6.56 27.12 8.80L27.12 8.80L22.08 8.80Q21.94 7.26 20.77 6.42Q19.60 5.59 17.66 5.59L17.66 5.59Q16.34 5.59 15.40 5.96Q14.46 6.34 13.96 7.00Q13.47 7.67 13.47 8.53L13.47 8.53Q13.47 9.47 14.04 10.09Q14.61 10.71 15.54 11.10Q16.48 11.48 17.55 11.74L17.55 11.74L19.86 12.30Q21.47 12.66 22.85 13.28Q24.23 13.89 25.28 14.79Q26.32 15.69 26.89 16.92Q27.46 18.15 27.46 19.75L27.46 19.75Q27.46 22.06 26.30 23.78Q25.14 25.50 22.94 26.44Q20.73 27.38 17.64 27.38ZM33.96 27L28.83 27L28.83 7.89L33.58 7.89L33.84 12.64L33.46 12.64Q33.91 10.88 34.77 9.77Q35.63 8.66 36.79 8.13Q37.96 7.60 39.24 7.60L39.24 7.60Q41.31 7.60 42.57 8.91Q43.83 10.22 44.43 12.95L44.43 12.95L43.83 12.95Q44.26 11.12 45.23 9.94Q46.19 8.75 47.52 8.18Q48.84 7.60 50.29 7.60L50.29 7.60Q52.06 7.60 53.43 8.37Q54.81 9.14 55.60 10.59Q56.40 12.03 56.40 14.11L56.40 14.11L56.40 27L51.27 27L51.27 15.09Q51.27 13.46 50.39 12.68Q49.51 11.89 48.23 11.89L48.23 11.89Q47.27 11.89 46.56 12.31Q45.85 12.73 45.47 13.48Q45.08 14.23 45.08 15.24L45.08 15.24L45.08 27L40.13 27L40.13 14.95Q40.13 13.55 39.30 12.72Q38.47 11.89 37.15 11.89L37.15 11.89Q36.25 11.89 35.52 12.30Q34.79 12.71 34.38 13.51Q33.96 14.30 33.96 15.45L33.96 15.45L33.96 27ZM63.83 27.38L63.83 27.38Q62.02 27.38 60.57 26.74Q59.13 26.09 58.30 24.82Q57.47 23.55 57.47 21.65L57.47 21.65Q57.47 20.06 58.06 18.98Q58.65 17.91 59.67 17.26Q60.68 16.61 61.97 16.27Q63.26 15.93 64.68 15.79L64.68 15.79Q66.34 15.62 67.36 15.47Q68.37 15.33 68.84 15.01Q69.31 14.70 69.31 14.08L69.31 14.08L69.31 13.99Q69.31 13.17 68.97 12.61Q68.63 12.05 67.96 11.75Q67.30 11.45 66.32 11.45L66.32 11.45Q65.33 11.45 64.60 11.75Q63.86 12.05 63.40 12.54Q62.94 13.04 62.72 13.65L62.72 13.65L58.02 12.87Q58.51 11.21 59.66 10.05Q60.80 8.88 62.50 8.27Q64.20 7.65 66.32 7.65L66.32 7.65Q67.88 7.65 69.33 8.02Q70.78 8.39 71.94 9.16Q73.09 9.93 73.77 11.16Q74.44 12.39 74.44 14.13L74.44 14.13L74.44 27L69.59 27L69.59 24.35L69.42 24.35Q68.95 25.24 68.19 25.91Q67.42 26.59 66.33 26.98Q65.25 27.38 63.83 27.38ZM65.28 23.77L65.28 23.77Q66.49 23.77 67.41 23.29Q68.32 22.81 68.84 21.99Q69.35 21.17 69.35 20.16L69.35 20.16L69.35 18.10Q69.13 18.27 68.66 18.40Q68.20 18.54 67.64 18.64Q67.08 18.75 66.53 18.83Q65.98 18.92 65.55 18.97L65.55 18.97Q64.61 19.10 63.90 19.41Q63.18 19.72 62.79 20.22Q62.39 20.73 62.39 21.51L62.39 21.51Q62.39 22.25 62.77 22.75Q63.14 23.26 63.79 23.51Q64.43 23.77 65.28 23.77ZM81.67 27L76.54 27L76.54 7.89L81.50 7.89L81.50 11.23L81.70 11.23Q82.23 9.45 83.47 8.54Q84.71 7.64 86.32 7.64L86.32 7.64Q86.71 7.64 87.16 7.68Q87.61 7.72 87.97 7.81L87.97 7.81L87.97 12.39Q87.63 12.27 86.98 12.20Q86.33 12.13 85.75 12.13L85.75 12.13Q84.59 12.13 83.65 12.64Q82.71 13.14 82.19 14.04Q81.67 14.93 81.67 16.13L81.67 16.13L81.67 27ZM86.67 7.89L98.00 7.89L98.00 11.81L86.67 11.81L86.67 7.89ZM89.30 21.86L89.30 3.35L94.43 3.35L94.43 21.41Q94.43 22.32 94.83 22.75Q95.23 23.19 96.17 23.19L96.17 23.19Q96.47 23.19 97.00 23.11Q97.52 23.04 97.80 22.97L97.80 22.97L98.53 26.81Q97.68 27.07 96.83 27.17Q95.99 27.27 95.22 27.27L95.22 27.27Q92.35 27.27 90.83 25.87Q89.30 24.47 89.30 21.86L89.30 21.86ZM110.41 27L105.19 27L105.19 1.54L121.94 1.54L121.94 5.86L110.41 5.86L110.41 12.97L120.81 12.97L120.81 17.22L110.41 17.22L110.41 27ZM128.47 27L123.34 27L123.34 7.89L128.47 7.89L128.47 27ZM125.91 5.40L125.91 5.40Q124.74 5.40 123.92 4.63Q123.10 3.86 123.10 2.77L123.10 2.77Q123.10 1.67 123.92 0.90Q124.74 0.13 125.91 0.13L125.91 0.13Q127.07 0.13 127.90 0.90Q128.72 1.66 128.72 2.77L128.72 2.77Q128.72 3.86 127.90 4.63Q127.07 5.40 125.91 5.40ZM135.68 15.94L135.68 15.94L135.68 27L130.55 27L130.55 7.89L135.39 7.89L135.47 12.66L135.17 12.66Q135.92 10.27 137.45 8.96Q138.98 7.65 141.40 7.65L141.40 7.65Q143.39 7.65 144.86 8.52Q146.33 9.38 147.15 11.00Q147.97 12.61 147.97 14.85L147.97 14.85L147.97 27L142.84 27L142.84 15.74Q142.84 13.96 141.92 12.95Q141.01 11.94 139.39 11.94L139.39 11.94Q138.31 11.94 137.46 12.41Q136.62 12.88 136.15 13.77Q135.68 14.66 135.68 15.94ZM157.06 27.32L157.06 27.32Q154.85 27.32 153.08 26.19Q151.31 25.05 150.29 22.86Q149.26 20.66 149.26 17.48L149.26 17.48Q149.26 14.22 150.32 12.03Q151.38 9.84 153.14 8.75Q154.90 7.65 157.02 7.65L157.02 7.65Q158.65 7.65 159.72 8.20Q160.80 8.75 161.46 9.55Q162.13 10.35 162.46 11.11L162.46 11.11L162.63 11.11L162.63 1.54L167.75 1.54L167.75 27L162.71 27L162.71 23.94L162.46 23.94Q162.11 24.71 161.44 25.49Q160.76 26.27 159.69 26.79Q158.61 27.32 157.06 27.32ZM158.63 23.21L158.63 23.21Q159.93 23.21 160.85 22.49Q161.77 21.77 162.25 20.48Q162.73 19.19 162.73 17.46L162.73 17.46Q162.73 15.72 162.26 14.45Q161.79 13.17 160.87 12.47Q159.94 11.76 158.63 11.76L158.63 11.76Q157.28 11.76 156.36 12.49Q155.45 13.23 154.99 14.51Q154.53 15.79 154.53 17.46L154.53 17.46Q154.53 19.14 155.00 20.44Q155.47 21.74 156.38 22.47Q157.30 23.21 158.63 23.21ZM178.48 27.38L178.48 27.38Q175.56 27.38 173.44 26.18Q171.32 24.98 170.19 22.78Q169.05 20.57 169.05 17.55L169.05 17.55Q169.05 14.59 170.18 12.37Q171.31 10.15 173.37 8.90Q175.44 7.65 178.23 7.65L178.23 7.65Q180.11 7.65 181.73 8.25Q183.35 8.85 184.59 10.06Q185.82 11.26 186.51 13.07Q187.20 14.88 187.20 17.34L187.20 17.34L187.20 18.78L171.15 18.78L171.15 15.57L184.69 15.57L182.30 16.42Q182.30 14.93 181.84 13.83Q181.39 12.73 180.49 12.12Q179.60 11.52 178.26 11.52L178.26 11.52Q176.95 11.52 176.01 12.13Q175.08 12.75 174.60 13.80Q174.13 14.85 174.13 16.20L174.13 16.20L174.13 18.47Q174.13 20.13 174.68 21.26Q175.24 22.39 176.24 22.95Q177.24 23.51 178.57 23.51L178.57 23.51Q179.48 23.51 180.21 23.26Q180.95 23.00 181.47 22.50Q181.99 21.99 182.26 21.26L182.26 21.26L186.91 22.13Q186.45 23.70 185.30 24.89Q184.16 26.08 182.44 26.73Q180.72 27.38 178.48 27.38ZM193.56 27L188.43 27L188.43 7.89L193.38 7.89L193.38 11.23L193.59 11.23Q194.12 9.45 195.36 8.54Q196.60 7.64 198.20 7.64L198.20 7.64Q198.60 7.64 199.05 7.68Q199.50 7.72 199.86 7.81L199.86 7.81L199.86 12.39Q199.52 12.27 198.87 12.20Q198.22 12.13 197.64 12.13L197.64 12.13Q196.48 12.13 195.54 12.64Q194.60 13.14 194.08 14.04Q193.56 14.93 193.56 16.13L193.56 16.13L193.56 27Z" fill="#1F2933"></path></g>
            
          </svg>