<svg xmlns="http://www.w3.org/2000/svg" data-logo="logo" viewBox="0 0 173 43"><path fill="#1F2933" fill-rule="evenodd" d="M20.543 41.783c11.046 0 20-8.955 20-20 0-11.046-8.954-20-20-20s-20 8.954-20 20c0 11.045 8.954 20 20 20Zm6.24-30.683c.303-1.08-.744-1.717-1.7-1.036l-13.347 9.508c-1.037.739-.874 2.21.245 2.21h3.515v-.026h6.85l-5.582 1.969-2.46 8.74c-.304 1.08.743 1.718 1.699 1.036l13.347-9.508c1.037-.738.874-2.21-.245-2.21h-5.33L26.782 11.1Z" clip-rule="evenodd"/><path fill="#1F2933" d="M55.58 30h17.64v4H55.58v-4ZM72.96 9.12v2.85L57.85 34h-3.6v-2.94L69.47 9.12h3.49Zm-18.7 0H71.2v4.01H54.26V9.12Zm20.41 15.82v-.36q0-2.03.58-3.75.58-1.72 1.69-2.98 1.11-1.26 2.74-1.97 1.62-.71 3.72-.71 2.11 0 3.75.71 1.64.71 2.76 1.97 1.12 1.26 1.7 2.98.58 1.72.58 3.75v.36q0 2.02-.58 3.74-.58 1.71-1.7 2.99-1.12 1.27-2.75 1.97-1.62.7-3.72.7t-3.74-.7q-1.63-.7-2.75-1.97-1.12-1.28-1.7-2.99-.58-1.72-.58-3.74Zm4.92-.36v.36q0 1.16.21 2.17.2 1.01.66 1.77.45.76 1.18 1.19.74.43 1.8.43 1.02 0 1.76-.43.73-.43 1.18-1.19.44-.76.66-1.77.21-1.01.21-2.17v-.36q0-1.12-.21-2.12-.22-1-.67-1.78-.45-.78-1.19-1.22-.73-.45-1.78-.45-1.04 0-1.77.45-.72.44-1.17 1.22-.46.78-.66 1.78-.21 1-.21 2.12Zm14.14.36v-.36q0-2.03.58-3.75.58-1.72 1.69-2.98 1.11-1.26 2.73-1.97 1.63-.71 3.73-.71t3.74.71q1.64.71 2.76 1.97 1.12 1.26 1.7 2.98.58 1.72.58 3.75v.36q0 2.02-.58 3.74-.58 1.71-1.7 2.99-1.12 1.27-2.74 1.97t-3.73.7q-2.1 0-3.73-.7t-2.75-1.97q-1.12-1.28-1.7-2.99-.58-1.72-.58-3.74Zm4.92-.36v.36q0 1.16.2 2.17.21 1.01.66 1.77.45.76 1.19 1.19.73.43 1.79.43 1.03 0 1.76-.43.74-.43 1.18-1.19.45-.76.66-1.77.21-1.01.21-2.17v-.36q0-1.12-.21-2.12t-.67-1.78q-.45-.78-1.18-1.22-.74-.45-1.78-.45t-1.77.45q-.73.44-1.18 1.22-.45.78-.66 1.78-.2 1-.2 2.12Zm19.53-9.07.31 3.83V34h-4.94V15.51h4.63Zm-.39 8.59h-1.35q0-1.93.47-3.56.47-1.63 1.38-2.84.92-1.2 2.27-1.87 1.35-.66 3.13-.66 1.23 0 2.25.36 1.03.37 1.77 1.15.74.78 1.15 2.02.41 1.24.41 2.96V34h-4.92V22.21q0-1.27-.34-1.95-.34-.68-.97-.96-.62-.27-1.49-.27-.96 0-1.67.39-.71.4-1.17 1.09-.46.69-.69 1.61-.23.93-.23 1.98Zm11.02-.56-1.76.22q0-1.81.46-3.36.45-1.56 1.35-2.74.89-1.18 2.23-1.84 1.33-.65 3.07-.65 1.33 0 2.43.38 1.09.39 1.87 1.21.78.83 1.2 2.17.41 1.33.41 3.26V34h-4.93V22.19q0-1.28-.34-1.96-.33-.67-.95-.94-.63-.26-1.48-.26-.89 0-1.56.35-.66.35-1.11.97-.44.61-.67 1.42-.22.81-.22 1.77Zm22.89 10.8q-2.16 0-3.87-.69-1.7-.69-2.89-1.92-1.19-1.23-1.82-2.87-.63-1.63-.63-3.47v-.69q0-2.1.59-3.84.6-1.75 1.72-3.03 1.12-1.28 2.73-1.97 1.6-.69 3.62-.69 1.97 0 3.49.65 1.52.65 2.55 1.84 1.03 1.2 1.56 2.86.53 1.67.53 3.7v2.06h-14.69v-3.29h9.86v-.37q0-1.03-.37-1.84t-1.1-1.29q-.74-.48-1.88-.48-.98 0-1.68.43t-1.13 1.2q-.44.76-.65 1.8-.22 1.03-.22 2.26v.69q0 1.11.32 2.05.32.94.91 1.62.59.68 1.43 1.06.85.38 1.92.38 1.34 0 2.49-.52 1.15-.53 1.99-1.59l2.39 2.6q-.58.84-1.58 1.61-1 .77-2.4 1.25-1.4.49-3.19.49Zm14.32-18.83.29 4.03V34h-4.92V15.51h4.63Zm5.86-.12-.09 4.56q-.35-.05-.86-.09-.5-.04-.91-.04-1.04 0-1.81.26-.76.27-1.26.77t-.75 1.25q-.25.74-.28 1.68l-1-.31q0-1.79.36-3.3.36-1.52 1.05-2.64.7-1.13 1.71-1.75 1-.61 2.3-.61.41 0 .84.06t.7.16Z"/></svg>